<svg width="204" height="32" viewBox="0 0 204 32" fill="none" xmlns="http://www.w3.org/2000/svg">
<path d="M46.1973 26V5.05273H56.0117C59.9961 5.05273 61.9883 6.67871 61.9883 9.93066C61.9883 12.3135 60.6895 14.0176 58.0918 15.043C60.8652 15.5605 62.252 17.1475 62.252 19.8037C62.252 23.9346 60.0693 26 55.7041 26H46.1973ZM55.543 22.6309C57.2617 22.6309 58.1211 21.752 58.1211 19.9941C58.1211 17.8164 56.8369 16.7275 54.2686 16.7275H53.0967V14.2227C56.3193 13.6855 57.9307 12.3379 57.9307 10.1797C57.9307 9.00781 57.208 8.42188 55.7627 8.42188H50.0791V22.6309H55.543Z" fill="#24695C"/>
<path d="M79.6391 10.6191V26H76.6068L76.1381 24.0371C74.3705 25.3457 72.4955 26 70.5131 26C67.3686 26 65.7963 24.1396 65.7963 20.4189V10.6191H69.6781V20.3164C69.6781 22.0156 70.4203 22.8652 71.9047 22.8652C73.1645 22.8652 74.4486 22.3623 75.7572 21.3564V10.6191H79.6391Z" fill="#24695C"/>
<path d="M93.657 14.6328C92.8563 14.1055 91.8504 13.8418 90.6395 13.8418C88.2273 13.8418 87.0213 15.1943 87.0213 17.8994C87.0213 21.1123 88.2762 22.7188 90.7859 22.7188C91.8016 22.7188 92.7586 22.5771 93.657 22.2939V14.6328ZM97.5389 25.0771C95.1854 25.6924 92.8855 26 90.6395 26C85.6688 26 83.1834 23.334 83.1834 18.002C83.1834 13.0801 85.615 10.6191 90.4783 10.6191C91.5135 10.6191 92.573 10.8633 93.657 11.3516V5.05273H97.5389V25.0771Z" fill="#24695C"/>
<path d="M111.645 14.1055C111.01 13.8711 110.107 13.7539 108.935 13.7539C106.249 13.7539 104.906 15.2334 104.906 18.1924C104.906 21.0537 106.064 22.4844 108.378 22.4844C109.491 22.4844 110.58 22.2207 111.645 21.6934V14.1055ZM115.527 24.8281C115.527 29.3203 112.826 31.5664 107.426 31.5664C105.531 31.5664 103.852 31.3223 102.387 30.834V27.7578C103.881 28.2461 105.571 28.4902 107.455 28.4902C110.248 28.4902 111.645 27.3184 111.645 24.9746C110.492 25.4629 109.252 25.707 107.924 25.707C103.354 25.707 101.069 23.2119 101.069 18.2217C101.069 13.1533 103.73 10.6191 109.052 10.6191C110.839 10.6191 112.997 10.8291 115.527 11.249V24.8281Z" fill="#24695C"/>
<path d="M126.293 10.6191C130.961 10.6191 133.295 13.002 133.295 17.7676C133.295 18.4023 133.251 19.0371 133.163 19.6719H122.953C122.953 21.8398 124.545 22.9238 127.728 22.9238C129.281 22.9238 130.834 22.7773 132.386 22.4844V25.5605C131.029 25.8535 129.379 26 127.435 26C121.859 26 119.071 23.3779 119.071 18.1338C119.071 13.124 121.478 10.6191 126.293 10.6191ZM122.953 16.9766H129.515V16.8594C129.515 14.7305 128.441 13.666 126.293 13.666C124.242 13.666 123.129 14.7695 122.953 16.9766Z" fill="#24695C"/>
<path d="M136.59 8.12891H139.461L140.047 10.6191H143.914V13.6953H140.472V20.7705C140.472 22.2061 141.092 22.9238 142.332 22.9238H143.914V26H140.457C137.879 26 136.59 24.6182 136.59 21.8545V8.12891Z" fill="#24695C"/>
<path d="M150.681 22.4111V26H146.799V22.4111H150.681Z" fill="#24695C"/>
<path d="M153.859 21.21C153.859 18.1533 156.086 16.625 160.539 16.625C161.584 16.625 162.629 16.7227 163.674 16.918V15.7607C163.674 14.3838 162.682 13.6953 160.7 13.6953C159.02 13.6953 157.155 13.9395 155.104 14.4277V11.3516C157.155 10.8633 159.02 10.6191 160.7 10.6191C165.27 10.6191 167.555 12.3086 167.555 15.6875V26H165.3L163.923 24.623C162.585 25.541 161.11 26 159.499 26C155.739 26 153.859 24.4033 153.859 21.21ZM163.674 19.5547C162.697 19.3594 161.652 19.2617 160.539 19.2617C158.674 19.2617 157.741 19.8965 157.741 21.166C157.741 22.5332 158.522 23.2168 160.085 23.2168C161.374 23.2168 162.57 22.8164 163.674 22.0156V19.5547Z" fill="#24695C"/>
<path d="M175.714 21.9863C176.681 22.5137 177.721 22.7773 178.834 22.7773C181.149 22.7773 182.306 21.1514 182.306 17.8994C182.306 15.1357 181.027 13.7539 178.468 13.7539C177.364 13.7539 176.446 13.8223 175.714 13.959V21.9863ZM171.832 11.249C173.873 10.8291 176.031 10.6191 178.307 10.6191C183.531 10.6191 186.144 13.0557 186.144 17.9287C186.144 23.3096 183.712 26 178.849 26C177.814 26 176.769 25.7559 175.714 25.2676V31.5664H171.832V11.249Z" fill="#24695C"/>
<path d="M193.57 21.9863C194.537 22.5137 195.577 22.7773 196.69 22.7773C199.004 22.7773 200.162 21.1514 200.162 17.8994C200.162 15.1357 198.882 13.7539 196.324 13.7539C195.22 13.7539 194.302 13.8223 193.57 13.959V21.9863ZM189.688 11.249C191.729 10.8291 193.887 10.6191 196.163 10.6191C201.387 10.6191 204 13.0557 204 17.9287C204 23.3096 201.568 26 196.705 26C195.67 26 194.625 25.7559 193.57 25.2676V31.5664H189.688V11.249Z" fill="#24695C"/>
<path d="M29.3334 9.33333H30.6667V22.6667H29.3334V26.6667C29.3334 27.0203 29.1929 27.3594 28.9428 27.6095C28.6928 27.8595 28.3536 28 28 28H4.00002C3.6464 28 3.30726 27.8595 3.05721 27.6095C2.80716 27.3594 2.66669 27.0203 2.66669 26.6667V5.33333C2.66669 4.97971 2.80716 4.64057 3.05721 4.39052C3.30726 4.14048 3.6464 4 4.00002 4H28C28.3536 4 28.6928 4.14048 28.9428 4.39052C29.1929 4.64057 29.3334 4.97971 29.3334 5.33333V9.33333ZM26.6667 22.6667H18.6667C16.8986 22.6667 15.2029 21.9643 13.9526 20.714C12.7024 19.4638 12 17.7681 12 16C12 14.2319 12.7024 12.5362 13.9526 11.286C15.2029 10.0357 16.8986 9.33333 18.6667 9.33333H26.6667V6.66667H5.33335V25.3333H26.6667V22.6667ZM28 20V12H18.6667C17.6058 12 16.5884 12.4214 15.8383 13.1716C15.0881 13.9217 14.6667 14.9391 14.6667 16C14.6667 17.0609 15.0881 18.0783 15.8383 18.8284C16.5884 19.5786 17.6058 20 18.6667 20H28ZM18.6667 14.6667H22.6667V17.3333H18.6667V14.6667Z" fill="#24695C"/>
</svg>
